<?xml version="1.0" encoding="UTF-8" standalone="no"?>
<!-- Created with Inkscape (http://www.inkscape.org/) -->

<svg
   width="210mm"
   height="297mm"
   viewBox="0 0 210 297"
   version="1.1"
   id="svg1"
   xmlns="http://www.w3.org/2000/svg"
   xmlns:svg="http://www.w3.org/2000/svg">
  <defs
     id="defs1" />
  <g
     id="layer1">
    <path
       style="fill:#000000;stroke-width:0.264583"
       id="path2"
       d="m 90.696237,110.65338 c 0.323667,2.83723 1.017151,5.61377 1.635368,8.39684 0.896721,3.32624 1.600002,6.68544 2.071444,10.09658 0.493998,4.0917 0.595117,8.21631 0.667253,12.33283 0.166954,4.38247 0.281725,8.76622 0.344829,13.15135 0.08669,3.94993 -0.0037,7.90517 -0.332217,11.84251 -0.186465,1.96764 -0.291224,3.94135 -0.558334,5.90046 -0.169069,1.60837 -0.676534,3.14691 -1.081347,4.70459 -0.418211,1.16134 -0.605007,2.37977 -0.889103,3.57402 -0.215503,0.70871 -0.337002,1.43474 -0.398182,2.17127 -0.0602,1.01519 -0.04617,2.0324 0.01159,3.04702 0.245647,2.6437 0.417237,5.29293 0.616603,7.94039 0.156343,1.91389 0.329936,3.83801 0.74667,5.71553 0.03727,0.16005 0.07454,0.32009 0.111811,0.48013 0,0 3.56793,1.71324 3.56793,1.71324 v 0 c -0.0398,-0.16079 -0.0796,-0.32157 -0.119399,-0.48236 -0.469254,-1.8633 -0.675383,-3.78246 -0.840372,-5.69402 -0.212111,-2.63361 -0.355484,-5.27314 -0.568489,-7.90675 -0.05469,-0.994 -0.04525,-1.98933 -0.0024,-2.98406 0.04836,-0.71862 0.151415,-1.42869 0.360068,-2.12042 0.283779,-1.19354 0.433896,-2.42051 0.861566,-3.58009 0.405111,-1.57369 0.925279,-3.12576 1.091769,-4.75066 0.275127,-1.97034 0.38989,-3.95464 0.538046,-5.93756 0.2814,-3.96171 0.312303,-7.93575 0.285599,-11.90631 -0.06916,-4.38229 -0.181991,-8.76343 -0.327451,-13.14387 -0.07793,-4.12744 -0.195951,-8.26122 -0.64143,-12.36809 -0.42555,-3.42654 -1.140235,-6.79036 -2.048499,-10.12248 -0.602536,-2.74991 -1.303007,-5.49521 -1.559843,-8.3048 z" />
    <path
       style="fill:#000000;stroke-width:0.264583"
       id="path3"
       d="m 107.64488,71.016642 c -3.33378,-0.526595 -6.71212,-0.660995 -10.079647,-0.790945 -1.784364,-0.04919 -3.568647,-0.125473 -5.353857,-0.06167 -0.577374,0.02064 -1.158325,0.01744 -1.730473,0.09765 -1.210001,0.169627 -3.428601,0.758785 -4.582478,1.04694 -3.003108,0.814941 -5.976344,1.821561 -8.664797,3.415607 -1.607269,0.952989 -2.093759,1.392693 -3.553272,2.511782 -1.935594,1.56913 -3.745296,3.309178 -5.053018,5.450057 -0.731017,1.196747 -0.855882,1.64524 -1.374116,2.917851 -1.082754,3.36531 -0.794438,5.994072 0.03049,9.350161 0.571423,2.193626 1.559081,4.048292 3.105091,5.695365 0.950545,0.7517 0.805627,0.69422 1.954993,1.33399 1.56581,0.87157 3.124499,1.75766 4.718974,2.57562 0.520681,0.2671 1.07982,0.45144 1.620099,0.67627 1.887527,0.78546 1.250656,0.52292 3.103382,1.26883 2.304762,0.87873 4.57553,1.84377 6.838098,2.82553 1.900661,0.75915 3.754433,1.6233 5.610299,2.48411 1.764028,0.75346 3.57568,1.39651 5.388841,2.02082 1.971771,0.9159 4.185051,0.62088 6.258661,0.29071 3.72683,-0.84276 6.77423,-3.16094 9.65926,-5.54405 2.60968,-2.39537 5.05034,-5.19842 6.23279,-8.600906 0.26694,-0.768125 0.42227,-1.570603 0.6334,-2.355908 0.7868,-3.90871 0.78242,-7.554894 -0.17869,-11.410661 -0.85976,-2.629429 -2.26138,-5.064715 -3.66193,-7.441221 -0.88412,-1.514277 -1.86778,-2.97193 -3.0204,-4.29504 -1.385,-1.289825 -3.06251,-2.415307 -4.91052,-2.875541 0,0 3.13662,2.428962 3.13662,2.428962 v 0 c 1.44167,0.561763 0.44532,0.195101 -2.67009,-1.642793 -0.28161,-0.166134 1.22844,0.691401 0.80391,0.562047 1.21424,1.270471 2.19451,2.748327 3.10471,4.245599 1.41859,2.34229 2.7915,4.758023 3.7111,7.343307 0.31663,1.145939 0.47593,1.584851 0.64259,2.801784 0.38634,2.821027 0.26556,5.682861 -0.29243,8.47209 -0.20695,0.765852 -0.35952,1.548516 -0.62085,2.29756 -1.16784,3.347321 -3.57232,6.095341 -6.15091,8.441581 -2.85502,2.34457 -5.88765,4.59736 -9.59133,5.3388 -2.09703,0.28911 -4.2164,0.44026 -6.191041,-0.47603 -1.794394,-0.63745 -3.606266,-1.23762 -5.339721,-2.03135 -1.859258,-0.86583 -3.726947,-1.71129 -5.627703,-2.48296 -2.255295,-0.9557 -4.50691,-1.92067 -6.799561,-2.78434 -1.23934,-0.50051 -1.848046,-0.74018 -3.090024,-1.26744 -0.542602,-0.23035 -1.923391,-1.20945 -1.623007,-0.70225 0.389845,0.65825 1.322181,0.77587 1.936578,1.23171 0.620956,0.4607 -2.426023,-1.39565 -1.968445,-1.2271 -0.231531,-0.22385 -0.479192,-0.43215 -0.6946,-0.67156 -1.228788,-1.36573 -2.002877,-3.118773 -2.532197,-4.852752 -0.863814,-3.27397 -1.191091,-5.829168 -0.14845,-9.135927 0.494361,-1.247992 0.607325,-1.680303 1.317144,-2.852243 1.278226,-2.110407 3.068261,-3.813413 4.964411,-5.363075 1.446419,-1.10957 1.905852,-1.531901 3.506314,-2.466652 2.672236,-1.560716 5.624616,-2.547641 8.60027,-3.345199 1.604542,-0.383407 2.954288,-0.757605 4.590815,-0.953762 2.334392,-0.279802 4.711232,-0.0077 7.050427,-0.01677 3.38624,0.135408 6.78619,0.286861 10.12762,0.892151 z" />
    <path
       style="fill:#000000;stroke-width:0.264583"
       id="path4"
       d="m 83.766759,88.574598 c -0.983821,0.481788 -2.158536,1.018816 -2.388224,2.191208 0.004,0.08357 0.0081,0.167145 0.01209,0.250717 0,0 3.590951,1.723683 3.590951,1.723683 v 0 c -0.02686,-0.04426 -0.05372,-0.08853 -0.08058,-0.132799 -0.0337,-0.957424 1.459177,-1.491764 2.155693,-1.828734 z" />
    <path
       style="fill:#000000;stroke-width:0.264583"
       id="path5"
       d="m 107.41294,90.138543 c 1.07531,0.738166 2.05288,1.616191 2.77925,2.703427 0.27597,0.523605 0.65477,1.242828 0.25777,1.796556 -0.48177,0.479448 -1.14296,0.600281 -1.78805,0.479014 -0.15281,-0.05347 -0.30791,-0.100811 -0.45844,-0.160406 -0.17223,-0.06819 -0.34465,-0.137517 -0.50916,-0.222671 -0.16203,-0.08387 -0.62764,-0.372218 -0.46832,-0.283299 5.20751,2.906432 3.28883,1.960469 2.15052,1.097573 -0.52454,-0.485457 -0.86442,-1.132861 -0.72904,-1.853597 0.27752,-0.466172 0.92206,-0.438366 1.40339,-0.46919 0.11549,-0.0037 0.23099,-0.0074 0.34648,-0.01106 0,0 -3.22361,-2.31725 -3.22361,-2.31725 v 0 c -0.11913,0.0082 -0.23827,0.0164 -0.3574,0.02458 -0.67439,0.0834 -1.34242,0.220138 -1.66872,0.887399 -0.22002,0.825691 0.0259,1.598388 0.55382,2.261621 1.76533,1.524532 3.87829,2.831164 6.14587,3.400759 0.78038,-0.0071 1.50923,-0.204886 2.03439,-0.821328 0.45873,-0.712565 0.29269,-1.482757 -0.071,-2.212432 -0.67269,-1.152774 -1.64364,-2.063528 -2.71014,-2.856842 z" />
    <path
       style="fill:#000000;stroke-width:0.264583"
       id="path6"
       d="m 85.071893,94.264728 c 0.708949,0.908624 0.338575,0.445971 1.113169,1.386318 0,0 3.608072,1.534467 3.608072,1.534467 v 0 C 89.029248,96.266512 89.393457,96.714981 88.698545,95.8417 Z" />
    <path
       style="fill:#000000;stroke-width:0.264583"
       id="path7"
       d="m 86.572859,99.025865 c 0.887341,1.160565 2.000374,2.134325 3.261119,2.874065 4.304207,2.5255 2.907303,1.9346 5.49538,2.90612 2.148917,0.74082 4.367112,0.69245 6.584392,0.38695 1.72513,-0.21703 3.32837,-0.83552 4.94685,-1.4254 0.91731,-0.34511 0.46475,-0.18155 1.35722,-0.49194 0,0 -3.26512,-2.20651 -3.26512,-2.20651 v 0 c -0.89148,0.32128 -0.43933,0.15526 -1.35625,0.49861 -1.58914,0.59172 -3.18179,1.16218 -4.878864,1.3651 -2.186755,0.26194 -4.361154,0.25927 -6.454241,-0.536 -1.730171,-0.72095 -1.831075,-0.82451 1.200322,0.91774 0.353571,0.20322 -0.699807,-0.41994 -1.035746,-0.65113 -0.843391,-0.58043 -1.622708,-1.24686 -2.220436,-2.08475 z" />
    <path
       style="fill:#000000;stroke-width:0.264583"
       id="path8"
       d="m 100.03681,139.24639 c 4.4937,-1.70074 8.93255,-3.5597 13.23057,-5.71318 1.09747,-0.54987 2.17445,-1.13971 3.26167,-1.70956 5.08923,-2.71915 9.85083,-5.98845 14.65424,-9.17144 2.41404,-1.56241 4.94832,-2.9507 7.68012,-3.86566 0.90834,-0.30765 0.46464,-0.17087 1.3297,-0.41479 0,0 -3.25636,-2.22556 -3.25636,-2.22556 v 0 c -0.86566,0.26845 -0.42392,0.12193 -1.32423,0.44247 -2.70969,0.99887 -5.23755,2.41346 -7.64092,4.00804 -4.74792,3.21245 -9.46441,6.49782 -14.5271,9.20562 -1.08375,0.56654 -2.15639,1.15485 -3.25125,1.69961 -4.33384,2.15636 -8.82478,3.98544 -13.404659,5.54764 z" />
    <path
       style="fill:#000000;stroke-width:0.264583"
       id="path9"
       d="m 140.97676,117.06142 c 0.14656,-4.99441 0.15628,-9.99176 0.19078,-14.98788 0.0223,-3.308208 0.055,-6.61632 0.0937,-9.924373 0,0 -3.42408,-1.745639 -3.42408,-1.745639 v 0 c 0.0234,3.325397 0.0354,6.650887 0.0128,9.976342 -0.0427,4.9587 -0.0678,9.92261 -0.37025,14.87372 z" />
    <path
       style="fill:#000000;stroke-width:0.264583"
       id="path10"
       d="m 143.91709,116.90977 c 3.90793,-0.87945 7.79285,-1.86681 11.69087,-2.79282 4.40836,-0.96932 8.837,-1.87688 13.29511,-2.58952 1.60586,-0.25 3.22055,-0.43124 4.83656,-0.59893 0,0 -3.17201,-2.25081 -3.17201,-2.25081 v 0 c -1.59835,0.19354 -3.19525,0.39918 -4.7845,0.65898 -4.45835,0.73855 -8.89671,1.62152 -13.30416,2.61725 -3.91054,0.94073 -7.8123,1.97575 -11.77651,2.65777 z" />
    <path
       style="fill:#000000;stroke-width:0.264583"
       id="path11"
       d="m 98.444075,138.81603 c -5.165026,-3.17897 -10.349632,-6.32621 -15.495727,-9.53595 -4.776735,-3.02788 -9.409965,-6.2736 -14.058532,-9.49263 -1.809724,-1.26742 -3.62503,-2.52251 -5.377442,-3.86833 -0.511146,-0.37321 -0.259668,-0.1941 -0.75383,-0.53817 0,0 -3.687659,-1.44992 -3.687659,-1.44992 v 0 c 0.500457,0.34306 0.242946,0.16838 0.7728,0.52364 1.784689,1.37872 3.643953,2.64827 5.494827,3.93634 4.694169,3.23974 9.374534,6.50371 14.189689,9.56271 5.06821,3.1647 10.175647,6.26558 15.238441,9.43883 z" />
    <path
       style="fill:#000000;stroke-width:0.264583"
       id="path12"
       d="m 64.657443,118.99352 c -1.86781,-2.53133 -3.760793,-5.04553 -5.674045,-7.54285 -1.789412,-2.3953 -3.508322,-4.85552 -4.935143,-7.48637 -0.560626,-1.09245 -0.30167,-0.56433 -0.781506,-1.58207 0,0 -3.577277,-1.62911 -3.577277,-1.62911 v 0 c 0.486759,1.04085 0.223115,0.50267 0.796213,1.61194 1.418865,2.66577 3.179408,5.13127 4.95899,7.56551 1.900587,2.46677 3.768061,4.96097 5.597239,7.48103 z" />
    <path
       style="fill:#000000;stroke-width:0.264583"
       id="path13"
       d="m 56.733312,115.37149 c -2.797333,-0.0831 -5.48704,0.60872 -8.105544,1.51719 -1.857473,0.6995 -3.663731,1.52598 -5.259372,2.71399 0,0 3.32314,2.10298 3.32314,2.10298 v 0 c 1.554319,-1.1627 3.314854,-1.97617 5.129287,-2.65393 2.649606,-0.8902 5.298037,-1.50324 8.115509,-1.3531 z" />
    <path
       style="fill:#000000;stroke-width:0.264583"
       id="path14"
       d="m 91.943387,200.48107 c -1.939213,3.98565 -3.555984,8.10353 -5.038018,12.27828 -1.628415,4.98389 -2.823702,10.09861 -3.765225,15.25306 -0.327072,1.7043 -0.172635,0.90232 -0.462976,2.406 0,0 3.450244,1.83655 3.450244,1.83655 v 0 c 0.257474,-1.52213 0.11971,-0.71005 0.413617,-2.43617 0.831872,-5.16438 1.993197,-10.27929 3.631719,-15.25128 0.994495,-2.78462 2.018443,-5.54118 3.266326,-8.22497 0.490374,-1.05463 1.03205,-2.03989 1.545937,-3.07712 0.13975,-0.28207 0.27056,-0.56849 0.405839,-0.85273 z" />
    <path
       style="fill:#000000;stroke-width:0.264583"
       id="path15"
       d="m 96.410279,203.60542 c 1.4327,2.40954 2.865972,4.81846 4.267991,7.24611 1.20286,2.09686 2.43874,4.17718 3.78311,6.18693 0.63059,0.93294 1.26669,1.86215 1.89985,2.79336 0.71859,0.98136 1.36681,2.01048 2.08537,2.99174 0.57116,0.87291 1.18283,1.68669 1.91046,2.4329 0.47823,0.6316 0.24521,0.29833 0.69477,1.0028 0,0 3.60919,1.59307 3.60919,1.59307 v 0 c -0.43925,-0.72715 -0.22285,-0.37028 -0.64907,-1.0707 -0.30528,-0.33065 -0.66221,-0.62169 -0.94967,-0.96749 -0.31141,-0.37459 -0.34817,-0.51089 -0.62827,-0.9248 -0.11559,-0.17081 -0.24098,-0.33478 -0.36147,-0.50217 -0.73483,-0.96638 -1.36957,-1.99834 -2.08857,-2.97571 -0.64302,-0.93164 -1.26592,-1.87687 -1.91801,-2.80235 -1.40418,-1.98146 -2.63306,-4.08329 -3.85085,-6.18244 -1.3854,-2.41171 -2.81344,-4.79829 -4.2055,-7.20592 z" />
  </g>
</svg>
