<?xml version="1.0" standalone="no"?>
   <!DOCTYPE svg PUBLIC "-//W3C//DTD SVG 1.1//EN" 
   "http://www.w3.org/Graphics/SVG/1.1/DTD/svg11.dtd"><svg id="svg" version="1.1" width="1356" height="2475" xmlns="http://www.w3.org/2000/svg"><path d="M838.829 208.240 C 801.915 221.974,756.544 270.922,713.453 343.500 C 692.088 379.487,686.139 399.599,685.156 439.171 L 684.270 474.843 657.885 475.486 C 636.246 476.014,628.296 477.619,613.689 484.409 C 596.820 492.251,595.048 492.490,580.199 488.928 C 570.381 486.573,557.729 485.934,546.357 487.221 L 528.196 489.276 523.399 477.888 C 515.031 458.019,510.003 434.937,502.344 381.220 C 490.174 295.867,482.488 274.524,455.371 250.780 C 436.309 234.090,426.588 231.039,392.398 231.017 C 344.557 230.986,311.874 243.114,283.399 271.465 C 257.184 297.565,246.000 329.817,246.000 379.316 C 246.000 416.335,239.676 448.186,221.789 501.253 C 204.931 551.264,193.544 610.540,195.847 636.293 C 197.309 652.648,205.926 670.839,219.156 685.500 C 224.378 691.288,224.359 692.348,218.606 715.500 C 211.821 742.802,212.511 778.511,220.375 807.000 C 226.744 830.075,226.140 846.829,217.500 886.791 C 208.958 926.298,208.116 953.134,214.561 980.471 C 219.179 1000.060,230.104 1025.677,241.655 1044.000 C 258.923 1071.392,258.612 1133.473,240.867 1201.500 C 226.957 1254.822,225.484 1295.262,236.377 1324.746 L 243.118 1342.993 231.515 1365.246 C 218.451 1390.300,201.030 1440.819,192.288 1479.000 C 184.505 1512.995,182.083 1570.622,185.668 1636.500 C 188.088 1680.981,190.009 1694.995,196.564 1716.000 C 208.475 1754.170,208.475 1754.150,196.987 1779.000 C 191.266 1791.375,182.952 1812.300,178.512 1825.500 C 163.591 1869.863,165.535 1926.706,182.921 1954.403 C 186.061 1959.406,192.998 1970.925,198.336 1980.000 C 208.831 1997.844,217.258 2008.435,241.305 2034.000 C 271.237 2065.822,271.817 2068.615,257.882 2113.881 C 249.496 2141.125,249.007 2145.058,251.789 2162.926 C 256.525 2193.347,276.247 2216.565,301.353 2221.275 C 308.166 2222.553,316.995 2228.255,326.510 2237.523 C 352.937 2263.264,384.573 2265.895,409.067 2244.388 C 413.031 2240.908,420.456 2239.497,434.838 2239.490 C 451.834 2239.482,456.904 2238.202,466.771 2231.430 C 473.222 2227.002,482.550 2222.418,487.500 2221.244 C 506.290 2216.786,527.413 2205.161,553.500 2184.922 C 578.053 2165.872,594.570 2154.916,636.998 2129.536 C 658.568 2116.633,716.844 2098.429,769.935 2088.009 C 795.774 2082.938,818.059 2078.082,819.457 2077.217 C 823.491 2074.724,822.425 2083.255,817.124 2095.884 C 809.799 2113.336,810.746 2148.247,819.146 2170.424 C 831.123 2202.044,866.717 2231.924,898.564 2237.092 C 904.915 2238.122,917.530 2244.162,926.596 2250.512 C 935.662 2256.863,948.446 2263.504,955.004 2265.270 C 970.785 2269.520,999.932 2265.990,1009.188 2258.710 C 1018.230 2251.597,1019.101 2251.613,1036.267 2259.206 C 1052.328 2266.311,1063.163 2265.147,1079.920 2254.518 C 1092.481 2246.552,1125.120 2210.029,1130.331 2198.109 C 1135.720 2185.784,1134.695 2153.229,1127.958 2122.759 C 1118.004 2077.732,1115.395 2048.508,1119.295 2025.738 C 1123.626 2000.463,1126.510 1995.161,1149.037 1971.073 C 1173.280 1945.150,1182.595 1925.139,1184.388 1895.131 C 1187.937 1835.747,1165.097 1772.320,1110.622 1690.281 C 1088.029 1656.256,1086.359 1652.621,1083.056 1630.281 C 1078.757 1601.204,1054.442 1527.441,1035.707 1486.642 L 1021.866 1456.500 1019.688 1408.500 C 1018.490 1382.100,1015.274 1349.700,1012.540 1336.500 C 1005.372 1301.894,973.703 1240.625,945.612 1207.019 C 934.992 1194.314,934.875 1193.872,934.499 1164.840 C 934.211 1142.608,932.198 1129.098,926.189 1109.075 C 921.827 1094.542,917.354 1074.658,916.249 1064.890 C 914.332 1047.941,914.787 1046.200,926.211 1026.814 C 949.080 988.009,956.624 967.022,959.076 935.389 C 961.079 909.559,956.543 875.331,947.719 849.684 C 942.435 834.325,942.354 832.406,946.710 825.759 C 954.231 814.280,965.026 782.859,967.069 766.500 C 968.099 758.250,967.690 744.075,966.159 735.000 C 963.738 720.640,964.131 717.527,969.188 711.000 C 985.189 690.347,1003.249 655.123,1013.026 625.500 C 1022.481 596.854,1024.102 587.683,1025.313 555.989 C 1026.893 514.650,1022.593 489.163,1007.177 448.500 C 998.736 426.234,997.925 420.599,995.943 370.500 C 994.142 324.988,992.764 313.916,987.175 300.060 C 976.941 274.690,955.685 245.011,938.275 231.783 C 910.448 210.642,862.735 199.346,838.829 208.240 M902.989 245.490 C 919.171 255.391,935.474 278.510,946.717 307.500 C 953.798 325.759,955.162 334.766,957.166 376.500 C 959.392 422.872,959.957 425.975,973.830 468.000 C 987.848 510.465,988.192 512.393,988.281 549.000 C 988.379 589.484,983.821 611.856,969.670 640.345 C 961.913 655.961,939.614 687.114,936.390 686.839 C 935.350 686.751,926.009 673.709,915.630 657.858 L 896.760 629.038 907.180 607.769 C 920.398 580.789,927.563 552.824,926.339 532.996 C 925.461 518.784,925.171 518.246,922.838 526.500 C 919.013 540.028,894.749 588.462,886.806 598.424 L 879.835 607.166 867.583 597.462 C 857.223 589.256,855.050 585.577,853.511 573.629 C 848.617 535.661,844.864 515.965,839.382 499.500 C 832.575 479.056,833.241 465.772,843.097 425.408 C 846.442 411.709,849.868 387.675,850.709 372.000 C 852.278 342.758,856.506 318.107,861.771 307.500 C 875.073 280.705,899.469 281.984,912.259 310.148 C 915.344 316.941,917.898 325.538,917.934 329.250 C 917.970 332.963,919.350 336.000,921.000 336.000 C 922.650 336.000,924.007 332.288,924.015 327.750 C 924.041 313.058,913.812 290.357,900.472 275.505 C 888.753 262.457,886.155 261.000,874.614 261.000 C 858.399 261.000,840.076 274.904,810.048 309.994 C 775.062 350.877,762.972 384.110,759.115 450.000 C 757.908 470.625,755.411 491.175,753.566 495.666 C 749.025 506.723,737.502 509.292,724.314 502.190 C 714.609 496.964,714.013 495.746,714.213 481.568 C 714.881 434.407,718.639 415.128,732.926 385.576 C 752.525 345.037,807.587 265.643,829.362 246.524 C 839.336 237.766,843.490 235.932,859.500 233.216 C 869.767 231.474,888.915 236.878,902.989 245.490 M415.043 262.808 C 440.069 271.336,454.401 290.835,463.326 328.500 C 470.370 358.229,470.059 356.318,476.985 412.500 C 482.397 456.397,487.493 481.886,493.929 497.250 C 495.101 500.048,490.024 501.000,473.929 501.000 C 454.565 501.000,452.578 500.463,454.511 495.750 C 455.695 492.863,456.443 467.969,456.172 440.431 C 455.796 402.147,454.398 385.907,450.230 371.431 C 443.625 348.488,427.363 320.227,412.578 306.000 C 402.253 296.064,400.553 295.500,380.917 295.500 C 363.634 295.500,359.080 296.586,353.666 302.000 C 345.405 310.262,347.794 319.927,356.894 315.057 C 370.227 307.921,389.075 321.493,396.032 343.239 C 400.939 358.576,398.294 389.644,390.251 411.141 C 386.828 420.289,376.400 439.862,367.077 454.637 C 341.738 494.796,335.917 509.218,333.557 537.692 C 331.516 562.312,331.434 562.508,322.763 563.496 C 299.194 566.184,287.248 542.038,295.785 508.967 C 301.714 485.998,299.660 481.158,291.085 497.893 C 274.798 529.678,290.391 576.462,319.725 583.824 C 328.233 585.960,328.616 585.801,354.000 569.561 C 421.727 526.231,446.036 517.167,484.003 521.085 L 500.956 522.835 490.412 536.667 C 484.612 544.275,477.704 554.471,475.059 559.325 C 468.739 570.926,464.539 585.639,468.193 583.381 C 469.737 582.427,471.000 580.311,471.000 578.679 C 471.000 574.845,489.193 547.334,500.068 534.722 C 506.940 526.754,512.364 524.141,529.381 520.604 C 540.866 518.216,550.869 516.869,551.609 517.609 C 552.350 518.350,545.459 526.815,536.297 536.420 C 517.854 555.756,496.987 586.460,498.731 591.693 C 499.349 593.546,502.871 590.180,506.559 584.214 C 516.679 567.839,546.722 543.000,556.407 543.000 C 560.858 543.000,564.050 544.013,563.500 545.250 C 562.950 546.488,557.400 557.625,551.168 570.000 C 540.974 590.240,539.647 595.589,537.964 623.250 C 536.738 643.416,537.149 654.000,539.160 654.000 C 540.847 654.000,543.101 647.414,544.169 639.363 C 546.576 621.219,558.102 586.864,566.293 573.422 C 572.920 562.546,596.282 536.971,599.520 537.046 C 610.751 537.307,624.509 570.801,626.327 602.307 C 628.540 640.660,633.896 636.796,632.562 597.809 C 631.529 567.640,630.605 563.232,621.690 545.946 C 616.331 535.555,612.296 526.711,612.723 526.292 C 613.150 525.873,617.336 526.267,622.025 527.167 C 635.875 529.827,652.285 549.794,663.003 577.027 C 668.300 590.487,673.355 602.175,674.236 603.000 C 675.117 603.825,675.036 595.504,674.056 584.509 C 671.795 559.138,663.076 540.600,646.006 524.865 C 638.602 518.040,633.191 511.809,633.981 511.019 C 637.795 507.205,681.525 506.525,696.326 510.049 C 746.074 521.895,818.754 569.978,864.342 621.204 C 917.441 680.870,934.801 726.698,923.958 778.581 L 920.214 796.500 916.490 784.500 C 910.519 765.257,901.213 745.742,895.910 741.340 C 889.919 736.368,889.730 739.647,895.128 754.947 C 897.399 761.382,900.831 778.480,902.756 792.943 C 904.680 807.405,909.567 837.747,913.615 860.369 C 926.101 930.153,923.325 953.426,896.347 1005.123 C 881.070 1034.396,880.621 1035.962,881.078 1058.391 C 881.337 1071.101,883.833 1091.625,886.626 1104.000 C 893.873 1136.117,895.509 1165.078,890.739 1176.804 C 888.569 1182.137,882.528 1193.250,877.314 1201.500 C 872.100 1209.750,864.720 1222.575,860.914 1230.000 C 853.369 1244.718,842.837 1281.103,845.049 1284.808 C 845.806 1286.078,853.270 1276.628,861.635 1263.808 C 880.473 1234.939,896.645 1214.975,901.111 1215.077 C 902.975 1215.120,909.225 1222.141,915.000 1230.679 C 920.775 1239.218,931.021 1253.020,937.769 1261.352 C 953.848 1281.205,970.570 1319.228,974.776 1345.500 C 976.625 1357.050,979.330 1384.901,980.787 1407.392 C 983.640 1451.451,981.369 1443.909,1018.601 1533.000 C 1029.742 1559.657,1047.006 1621.466,1051.282 1650.000 C 1053.878 1667.325,1060.052 1726.050,1065.002 1780.500 C 1069.952 1834.950,1076.118 1889.625,1078.704 1902.000 C 1081.953 1917.550,1084.165 1953.226,1085.864 2017.500 C 1087.958 2096.751,1089.259 2114.220,1094.661 2135.662 C 1102.083 2165.124,1102.752 2186.909,1096.601 2198.805 C 1090.614 2210.383,1066.707 2230.974,1057.127 2232.806 C 1052.831 2233.627,1045.758 2233.346,1041.409 2232.182 C 1034.052 2230.214,1033.474 2228.825,1033.122 2212.283 C 1032.914 2202.502,1031.234 2189.100,1029.389 2182.500 C 1027.543 2175.900,1026.005 2166.450,1025.971 2161.500 C 1025.922 2154.450,1025.249 2153.475,1022.868 2157.000 C 1021.067 2159.665,1020.592 2169.689,1021.702 2181.583 C 1024.074 2207.011,1020.004 2219.932,1007.248 2227.467 C 994.337 2235.093,971.221 2234.413,951.241 2225.818 C 929.003 2216.251,919.667 2199.721,919.667 2169.916 C 919.667 2157.935,918.739 2149.116,917.606 2150.317 C 913.939 2154.201,906.000 2184.799,906.000 2195.045 C 906.000 2209.309,898.604 2208.036,878.771 2190.359 C 855.913 2169.986,844.814 2147.378,844.866 2121.297 C 844.888 2110.153,847.017 2096.255,849.737 2089.500 C 857.413 2070.439,866.282 2043.428,873.283 2017.789 C 884.911 1975.211,877.558 1942.699,839.970 1870.500 C 819.931 1832.008,810.452 1809.655,801.319 1779.359 C 794.664 1757.282,788.494 1738.494,787.609 1737.609 C 780.840 1730.840,794.347 1802.980,804.115 1825.768 C 807.234 1833.046,808.519 1839.000,806.970 1839.000 C 805.421 1839.000,794.791 1830.942,783.348 1821.093 C 764.143 1804.564,735.000 1765.024,735.000 1755.498 C 735.000 1753.574,733.650 1752.000,732.000 1752.000 C 719.233 1752.000,743.405 1792.517,778.596 1830.102 C 795.800 1848.478,814.899 1871.779,821.037 1881.883 L 832.196 1900.254 831.562 1936.377 C 831.015 1967.573,831.891 1975.281,837.989 1992.889 C 843.916 2010.002,844.283 2012.981,840.275 2011.434 C 823.350 2004.901,788.808 1997.735,760.500 1994.885 C 718.931 1990.700,680.816 1993.530,648.000 2003.240 C 627.484 2009.310,615.463 2010.854,586.500 2011.142 L 550.500 2011.500 548.569 1984.500 C 546.084 1949.744,542.038 1935.123,518.270 1875.000 C 495.263 1816.801,490.137 1795.813,487.285 1748.129 C 485.466 1717.715,484.339 1712.177,479.240 1708.606 C 466.374 1699.594,460.553 1710.049,454.420 1753.188 C 452.049 1769.859,450.102 1799.700,450.092 1819.500 C 450.074 1855.902,454.973 1881.415,469.390 1920.000 C 472.165 1927.425,476.221 1938.900,478.405 1945.500 C 480.589 1952.100,485.278 1964.796,488.826 1973.713 C 503.575 2010.779,511.007 2085.458,504.052 2126.694 C 499.413 2154.193,480.175 2193.273,465.925 2204.142 C 457.215 2210.785,453.755 2211.559,437.878 2210.410 C 412.194 2208.553,407.948 2203.520,405.816 2172.411 C 404.896 2158.985,403.256 2148.000,402.171 2148.000 C 392.276 2148.000,389.597 2181.375,397.839 2201.973 C 403.351 2215.749,401.435 2220.021,387.077 2225.968 C 379.523 2229.097,376.754 2228.683,366.443 2222.888 C 359.892 2219.207,351.376 2211.988,347.516 2206.847 C 341.410 2198.713,340.537 2194.289,340.786 2172.750 C 340.990 2155.047,340.024 2148.000,337.392 2148.000 C 333.492 2148.000,327.000 2169.444,327.000 2182.328 C 327.000 2188.358,325.507 2190.000,320.023 2190.000 C 311.859 2190.000,302.569 2180.546,297.081 2166.653 C 292.693 2155.543,294.358 2130.698,301.825 2095.858 C 304.343 2084.111,307.173 2059.633,308.113 2041.462 C 309.646 2011.820,308.835 2003.800,300.227 1963.462 C 285.082 1892.489,275.875 1854.600,266.699 1825.477 C 257.304 1795.660,241.789 1729.211,238.565 1704.980 L 236.500 1689.460 254.270 1707.230 C 264.044 1717.004,273.731 1725.000,275.798 1725.000 C 277.864 1725.000,273.294 1716.563,265.641 1706.250 C 257.989 1695.938,247.739 1679.092,242.864 1668.816 L 234.000 1650.132 234.000 1576.514 C 234.000 1513.872,234.915 1498.542,240.135 1473.698 C 247.036 1440.859,272.557 1362.000,276.284 1362.000 C 277.619 1362.000,282.702 1367.738,287.579 1374.750 C 297.122 1388.471,328.916 1423.451,325.072 1416.000 C 323.796 1413.525,319.124 1406.100,314.692 1399.500 C 305.071 1385.174,283.527 1337.980,277.421 1317.856 C 270.673 1295.617,271.810 1259.442,280.186 1229.870 C 291.706 1189.199,294.037 1176.457,296.357 1141.500 L 298.546 1108.500 307.031 1122.704 C 311.698 1130.516,322.060 1142.792,330.058 1149.982 C 344.194 1162.692,363.027 1173.973,365.680 1171.320 C 366.402 1170.598,358.230 1160.894,347.522 1149.754 C 336.813 1138.614,322.969 1120.785,316.759 1110.134 C 310.548 1099.483,302.867 1087.464,299.691 1083.426 C 291.383 1072.864,294.567 1072.321,310.400 1081.600 C 318.029 1086.071,324.985 1089.015,325.857 1088.143 C 329.222 1084.778,317.873 1068.728,306.609 1060.922 C 282.341 1044.104,278.430 1036.767,258.747 971.122 L 250.838 944.745 257.501 908.122 C 268.107 849.831,268.302 844.575,261.176 809.370 C 253.752 772.694,254.181 769.551,272.773 724.500 C 284.936 695.029,297.500 676.193,326.283 644.280 C 345.359 623.130,362.071 598.071,359.089 595.089 C 358.187 594.187,354.010 598.636,349.806 604.975 C 345.603 611.314,329.720 627.965,314.513 641.978 C 297.173 657.955,281.481 675.854,272.431 689.978 C 264.495 702.365,258.001 710.374,258.000 707.775 C 258.000 699.331,272.842 659.089,285.067 634.388 C 297.541 609.182,299.676 600.000,293.061 600.000 C 286.113 600.000,272.874 616.652,259.688 641.976 L 246.854 666.625 240.427 657.599 C 234.741 649.614,234.000 644.540,234.000 613.581 C 234.000 573.585,239.403 548.275,262.834 478.500 C 276.141 438.877,277.071 433.994,279.266 392.216 C 282.417 332.267,286.666 318.617,308.966 296.795 C 343.310 263.190,380.857 251.160,415.043 262.808 M773.183 584.071 C 769.680 589.472,769.930 622.395,773.526 629.114 C 777.072 635.741,793.372 650.340,814.603 665.906 C 830.511 677.569,849.603 701.393,859.939 722.478 C 865.084 732.975,866.836 734.779,866.906 729.654 C 867.196 708.526,842.295 672.846,812.874 652.229 C 784.304 632.210,779.337 624.942,777.184 600.000 C 776.250 589.184,774.468 582.090,773.183 584.071 M828.000 613.596 C 828.000 623.435,853.988 657.000,861.606 657.000 C 865.294 657.000,859.769 647.530,851.959 640.466 C 848.330 637.185,842.778 629.438,839.620 623.250 C 834.765 613.738,828.000 608.118,828.000 613.596 M385.620 685.751 C 410.448 698.608,418.853 709.529,424.239 735.932 C 426.283 745.953,429.748 754.749,431.939 755.480 C 438.242 757.581,433.771 725.908,425.086 706.938 C 419.015 693.676,415.327 689.725,403.820 684.155 C 396.163 680.448,384.183 676.830,377.199 676.115 L 364.500 674.815 385.620 685.751 M730.708 691.612 C 711.507 698.213,687.000 732.030,687.000 751.924 C 687.000 757.692,684.274 763.515,679.455 768.042 L 671.910 775.130 659.887 763.390 C 646.720 750.533,633.000 725.794,633.000 714.911 C 633.000 711.110,631.462 708.000,629.582 708.000 C 624.331 708.000,628.568 735.433,636.100 750.197 C 639.638 757.131,651.187 772.020,661.766 783.283 C 678.759 801.377,685.542 813.204,678.750 812.899 C 677.513 812.843,660.300 800.717,640.500 785.952 C 599.637 755.480,578.041 746.250,547.602 746.250 C 521.914 746.250,510.757 752.444,485.205 780.891 C 453.755 815.904,419.647 849.000,415.012 849.000 C 412.805 849.000,411.000 846.051,411.000 842.447 C 411.000 829.550,423.679 810.015,443.457 792.442 C 457.507 779.959,466.934 768.246,474.985 753.272 C 489.151 726.926,488.004 718.953,473.243 741.159 C 457.348 765.069,443.053 778.056,435.326 775.604 C 431.876 774.508,422.835 765.532,415.236 755.656 C 398.528 733.944,382.476 722.768,365.204 720.821 C 353.980 719.556,350.555 720.695,338.933 729.559 C 331.583 735.166,322.416 744.421,318.562 750.127 C 314.320 756.408,309.085 760.500,305.293 760.500 C 293.677 760.500,296.711 767.001,317.469 786.583 C 345.050 812.602,355.020 814.315,386.216 798.400 C 398.905 791.927,417.000 789.745,417.000 794.689 C 417.000 799.810,396.572 815.285,382.941 820.491 C 366.416 826.802,350.443 825.087,327.729 814.564 C 319.078 810.555,312.000 808.240,312.000 809.419 C 312.000 814.035,328.383 828.884,337.834 832.833 C 349.370 837.653,377.098 838.335,388.305 834.074 C 397.110 830.726,396.892 829.843,393.052 853.288 C 391.075 865.361,387.358 874.537,381.482 881.849 C 364.579 902.882,355.007 930.332,345.061 986.289 C 342.083 1003.047,343.019 1026.368,346.924 1032.687 C 350.761 1038.894,353.284 1033.183,354.850 1014.750 C 357.019 989.227,372.629 931.480,382.769 911.470 C 390.899 895.426,399.647 886.469,441.000 851.851 C 455.025 840.110,475.950 818.803,487.500 804.502 C 512.999 772.929,524.186 766.385,552.000 766.770 C 576.606 767.110,590.838 773.678,622.500 799.302 C 635.700 809.985,660.675 827.186,678.000 837.526 C 710.752 857.074,743.854 887.126,762.522 914.258 C 773.420 930.099,786.000 967.158,786.000 983.425 C 786.000 997.855,775.193 1036.862,767.946 1048.587 C 764.141 1054.744,763.219 1059.100,765.089 1062.089 C 770.205 1070.265,783.540 1059.199,794.244 1037.894 C 832.548 961.654,812.336 898.249,730.596 838.231 C 713.462 825.651,699.290 807.984,690.502 788.250 C 687.776 782.128,699.790 787.448,717.043 800.002 C 748.102 822.603,770.961 820.741,801.759 793.104 C 812.121 783.804,828.000 779.256,828.000 785.587 C 828.000 787.011,823.950 793.271,819.000 799.500 C 806.117 815.712,806.808 820.196,820.778 811.042 C 843.588 796.096,846.054 756.850,825.890 729.694 C 817.368 718.217,811.050 719.462,817.131 731.420 C 823.662 744.262,825.739 753.000,822.262 753.000 C 820.534 753.000,810.231 744.945,799.367 735.100 C 778.571 716.254,766.994 711.667,749.144 715.203 C 738.392 717.333,715.492 732.577,706.908 743.318 C 703.832 747.167,700.701 749.701,699.949 748.949 C 697.247 746.247,710.638 724.275,721.706 713.250 C 732.452 702.545,733.952 702.000,752.643 702.000 C 770.511 702.000,771.859 701.574,767.565 697.279 C 760.150 689.865,743.318 687.276,730.708 691.612 M888.000 688.194 C 888.000 688.850,891.359 695.263,895.464 702.444 C 900.052 710.470,902.942 713.367,902.964 709.963 C 903.005 703.620,893.878 687.000,890.353 687.000 C 889.059 687.000,888.000 687.537,888.000 688.194 M322.194 699.463 C 315.327 702.793,301.523 732.556,303.997 738.701 C 305.162 741.596,305.583 741.532,305.763 738.433 C 305.893 736.196,309.375 730.355,313.500 725.453 C 317.625 720.551,321.000 714.644,321.000 712.327 C 321.000 710.010,324.375 707.267,328.500 706.232 C 332.625 705.197,336.000 702.471,336.000 700.175 C 336.000 695.353,331.183 695.105,322.194 699.463 M378.286 738.856 C 383.881 742.626,388.902 748.012,389.443 750.823 C 390.256 755.044,388.820 755.614,381.214 754.093 C 372.783 752.407,372.000 752.926,372.000 760.199 C 372.000 768.598,363.229 774.081,350.055 773.919 C 343.645 773.840,321.092 757.657,324.019 755.238 C 339.691 742.284,356.273 732.000,361.488 732.000 C 365.131 732.000,372.690 735.085,378.286 738.856 M754.347 745.033 C 767.418 762.169,762.047 774.138,743.388 769.455 C 739.471 768.472,732.364 769.151,727.596 770.963 C 720.220 773.768,718.022 773.356,712.871 768.204 L 706.815 762.148 714.157 754.288 C 720.818 747.157,739.405 735.461,744.597 735.133 C 745.751 735.060,750.138 739.515,754.347 745.033 M534.389 780.227 C 524.842 784.049,514.732 792.851,494.191 815.224 C 479.595 831.122,477.007 835.650,477.046 845.224 C 477.099 858.132,477.974 859.701,491.171 870.538 C 496.976 875.305,503.114 877.886,506.524 876.994 C 510.596 875.929,513.967 878.356,518.416 885.555 C 521.831 891.081,528.085 898.852,532.313 902.824 C 539.101 909.201,540.000 912.432,540.000 930.446 C 540.000 949.664,539.522 951.094,531.750 955.121 C 514.839 963.886,495.627 984.564,465.000 1026.968 C 432.514 1071.945,425.071 1078.700,399.750 1086.182 C 384.153 1090.791,383.237 1095.000,397.830 1095.000 C 421.904 1095.000,451.304 1072.877,493.739 1022.829 C 514.837 997.945,523.097 991.115,542.310 982.667 L 555.120 977.035 583.309 988.192 C 617.336 1001.659,636.636 1013.966,645.031 1027.550 C 653.131 1040.657,676.748 1060.368,693.409 1067.928 C 707.438 1074.294,723.000 1075.909,723.000 1071.000 C 723.000 1069.350,721.129 1068.000,718.842 1068.000 C 708.551 1068.000,677.425 1042.756,663.935 1023.469 C 637.706 985.970,622.523 973.557,589.250 962.414 C 572.980 956.965,567.163 953.340,561.802 945.306 C 550.839 928.877,552.634 916.652,568.500 899.690 C 577.211 890.377,582.000 882.538,582.000 877.593 C 582.000 870.366,582.666 870.036,593.692 871.799 C 616.657 875.471,636.000 862.420,636.000 843.253 C 636.000 834.931,620.588 818.132,598.774 802.678 C 564.879 778.664,550.670 773.709,534.389 780.227 M568.161 798.156 C 575.363 801.541,590.951 812.472,602.801 822.446 C 623.208 839.624,624.120 840.923,620.064 847.041 C 613.460 857.005,608.239 855.950,599.197 842.825 C 583.300 819.746,573.000 824.146,573.000 854.016 C 573.000 874.921,568.133 887.765,557.350 895.318 C 548.474 901.535,547.528 901.356,538.425 891.750 C 525.483 878.092,521.340 867.784,523.546 854.728 C 526.273 838.587,518.282 838.766,509.983 855.032 L 503.845 867.065 494.922 860.468 C 483.859 852.289,483.692 846.203,494.190 833.727 C 508.030 817.279,540.700 792.000,548.116 792.000 C 551.938 792.000,560.958 794.770,568.161 798.156 M548.182 840.995 C 544.831 849.435,545.556 882.000,549.094 882.000 C 554.360 882.000,555.343 874.785,552.805 854.765 C 551.169 841.859,549.643 837.314,548.182 840.995 M864.785 878.098 C 862.742 878.856,858.563 885.107,855.498 891.988 C 852.433 898.870,845.668 909.030,840.463 914.567 C 825.963 929.993,828.915 951.000,845.583 951.000 C 861.400 951.000,876.117 927.193,876.428 901.100 C 876.631 884.111,872.196 875.348,864.785 878.098 M427.152 898.325 C 426.239 900.703,425.963 905.091,426.537 908.075 C 427.996 915.647,444.999 915.674,446.457 908.106 C 448.609 896.930,431.093 888.055,427.152 898.325 M679.590 902.855 C 678.502 904.614,678.491 908.820,679.564 912.201 C 682.590 921.736,697.500 919.075,697.500 909.000 C 697.500 903.114,695.785 901.302,689.533 900.578 C 685.152 900.071,680.677 901.096,679.590 902.855 M474.137 931.335 C 468.555 938.061,471.458 949.352,479.047 950.432 C 487.257 951.601,492.243 943.021,488.742 933.750 C 485.832 926.043,479.410 924.981,474.137 931.335 M721.085 940.500 C 718.251 947.885,722.328 954.000,730.085 954.000 C 734.085 954.000,738.135 951.975,739.085 949.500 C 741.919 942.115,737.842 936.000,730.085 936.000 C 726.085 936.000,722.035 938.025,721.085 940.500 M386.127 943.873 C 381.887 948.113,384.166 953.112,391.956 956.662 C 401.919 961.201,408.175 956.723,403.126 948.667 C 399.677 943.164,389.660 940.340,386.127 943.873 M660.152 958.317 C 652.562 967.462,664.538 979.438,673.683 971.848 C 676.217 969.745,677.887 965.207,677.395 961.763 C 676.296 954.069,665.472 951.906,660.152 958.317 M435.106 974.803 C 429.965 984.408,431.494 987.000,442.298 987.000 C 449.945 987.000,453.084 985.463,454.491 981.027 C 455.534 977.742,455.545 973.692,454.517 972.027 C 451.305 966.830,438.384 968.678,435.106 974.803 M756.750 983.153 C 751.676 984.976,751.973 997.964,757.134 999.945 C 761.740 1001.712,768.000 996.713,768.000 991.267 C 768.000 986.374,761.278 981.526,756.750 983.153 M705.510 992.548 C 703.253 994.020,701.950 998.920,702.510 1003.826 C 703.241 1010.229,705.310 1012.757,710.415 1013.480 C 719.897 1014.824,726.484 1008.572,725.402 999.257 C 724.731 993.486,722.580 991.301,717.000 990.723 C 712.875 990.295,707.704 991.117,705.510 992.548 M851.306 1006.902 C 840.217 1022.008,822.231 1039.633,805.341 1051.945 C 798.615 1056.847,797.323 1059.249,799.939 1061.983 C 808.325 1070.749,844.092 1041.261,857.898 1014.200 C 868.297 993.817,864.222 989.306,851.306 1006.902 M385.166 1015.290 C 382.179 1023.074,386.365 1029.507,393.737 1028.460 C 398.695 1027.756,400.500 1025.498,400.500 1020.000 C 400.500 1014.502,398.695 1012.244,393.737 1011.540 C 389.680 1010.964,386.250 1012.464,385.166 1015.290 M732.032 1039.462 C 727.047 1045.468,730.367 1053.000,738.000 1053.000 C 741.404 1053.000,744.972 1050.958,745.930 1048.462 C 747.654 1043.969,742.370 1035.000,738.000 1035.000 C 736.754 1035.000,734.068 1037.008,732.032 1039.462 M841.353 1063.942 C 830.453 1075.703,827.039 1092.468,829.395 1122.663 C 830.618 1138.336,830.046 1158.003,827.968 1171.711 C 824.105 1197.198,825.452 1207.380,833.076 1210.306 C 846.526 1215.467,867.831 1182.802,873.821 1147.838 C 876.894 1129.895,876.531 1123.656,870.774 1095.529 C 864.656 1065.634,859.906 1056.000,851.283 1056.000 C 849.870 1056.000,845.401 1059.574,841.353 1063.942 M563.765 1068.821 C 553.277 1075.889,540.000 1093.097,540.000 1099.623 C 540.000 1106.523,549.029 1106.908,562.088 1100.564 C 574.612 1094.479,575.417 1094.442,586.000 1099.464 C 592.023 1102.322,598.987 1103.879,601.476 1102.924 C 611.737 1098.987,602.998 1075.837,587.880 1066.907 C 577.169 1060.579,575.839 1060.684,563.765 1068.821 M346.460 1074.127 C 345.390 1077.496,345.418 1085.596,346.521 1092.127 C 348.873 1106.045,346.952 1107.245,340.716 1095.750 L 336.240 1087.500 336.120 1095.637 C 335.730 1122.072,367.310 1166.512,389.662 1170.982 C 405.878 1174.226,429.909 1173.115,437.773 1168.758 C 442.961 1165.884,452.213 1165.176,470.055 1166.289 C 502.209 1168.295,552.000 1157.610,552.000 1148.703 C 552.000 1142.327,545.587 1141.001,504.000 1138.782 C 469.935 1136.965,456.288 1133.380,443.966 1123.011 C 433.383 1114.106,429.472 1115.566,434.478 1126.552 C 437.631 1133.472,437.087 1134.645,428.215 1140.054 C 415.767 1147.644,406.352 1147.552,391.456 1139.693 C 364.919 1125.693,354.000 1109.647,354.000 1084.649 C 354.000 1067.997,350.123 1062.586,346.460 1074.127 M689.806 1117.734 C 684.595 1124.013,661.540 1135.546,645.643 1139.827 C 605.928 1150.521,595.101 1162.752,617.181 1171.978 C 632.610 1178.425,654.420 1173.270,677.815 1157.647 C 699.318 1143.288,709.952 1128.253,705.065 1119.121 C 701.145 1111.797,695.183 1111.255,689.806 1117.734 M768.305 1192.032 C 741.065 1233.841,695.339 1267.597,642.512 1284.895 C 627.025 1289.966,615.242 1291.454,590.399 1291.474 C 572.743 1291.488,559.243 1292.313,560.399 1293.306 C 561.554 1294.299,574.155 1296.778,588.399 1298.814 C 635.153 1305.499,684.239 1292.777,731.254 1261.790 C 776.368 1232.056,811.271 1177.038,787.200 1173.600 C 782.333 1172.905,778.035 1177.098,768.305 1192.032 M378.000 1213.251 C 378.000 1219.841,410.434 1246.772,430.923 1257.194 C 454.335 1269.104,466.720 1268.149,444.643 1256.137 C 431.011 1248.720,405.311 1229.512,388.684 1214.316 C 381.663 1207.898,378.000 1207.533,378.000 1213.251 M794.962 1245.390 C 779.248 1264.026,729.734 1305.525,714.510 1312.820 C 708.454 1315.721,693.467 1320.505,681.204 1323.451 C 652.486 1330.349,648.807 1333.849,653.566 1349.736 C 658.039 1364.664,669.069 1378.058,680.939 1382.975 C 687.884 1385.851,690.000 1388.636,690.000 1394.899 C 690.000 1414.023,715.403 1420.059,740.979 1407.011 C 759.030 1397.802,791.835 1363.664,802.971 1342.500 C 813.454 1322.579,826.863 1281.130,829.831 1259.478 C 831.531 1247.074,830.867 1244.595,824.011 1237.739 C 819.755 1233.482,814.398 1230.000,812.106 1230.000 C 809.814 1230.000,802.100 1236.926,794.962 1245.390 M882.351 1264.077 C 876.032 1271.691,867.000 1302.882,867.107 1316.720 C 867.166 1324.299,869.316 1338.600,871.885 1348.500 C 874.833 1359.858,877.354 1388.673,878.717 1426.592 C 880.534 1477.122,881.802 1488.547,886.689 1498.386 C 889.885 1504.821,894.654 1511.391,897.286 1512.985 C 904.713 1517.483,918.404 1512.537,927.589 1502.036 C 968.202 1455.608,967.575 1456.959,965.185 1420.938 C 961.162 1360.308,939.244 1294.089,914.150 1266.750 C 907.039 1259.003,887.897 1257.394,882.351 1264.077 M310.701 1307.366 C 308.514 1314.258,316.145 1343.604,324.264 1359.518 C 327.725 1366.302,336.292 1378.073,343.302 1385.676 C 350.312 1393.279,361.703 1407.924,368.615 1418.220 C 385.103 1442.779,394.010 1447.325,420.768 1444.838 C 453.393 1441.806,471.320 1431.143,466.205 1417.812 C 465.229 1415.270,448.022 1405.177,427.966 1395.384 C 398.721 1381.104,386.863 1373.281,368.084 1355.885 C 355.206 1343.955,340.035 1326.950,334.372 1318.097 C 323.699 1301.412,313.988 1297.010,310.701 1307.366 M815.384 1346.250 C 811.127 1350.788,804.011 1361.767,799.570 1370.648 C 777.925 1413.935,712.619 1458.027,652.500 1469.945 C 642.600 1471.907,631.407 1474.112,627.627 1474.844 C 613.393 1477.602,625.210 1482.000,646.856 1482.000 C 677.226 1482.000,730.638 1469.670,753.946 1457.279 C 774.613 1446.292,806.369 1418.022,818.667 1399.663 C 829.804 1383.039,844.044 1348.048,841.923 1342.521 C 839.025 1334.970,823.982 1337.084,815.384 1346.250 M510.977 1419.822 C 528.454 1421.767,542.731 1421.752,552.977 1419.778 C 566.361 1417.200,562.711 1416.794,526.500 1416.832 L 484.500 1416.876 510.977 1419.822 M797.848 1489.464 C 745.631 1532.620,741.175 1539.159,741.066 1572.783 C 740.958 1605.933,759.223 1635.000,780.161 1635.000 C 791.025 1635.000,796.283 1627.278,800.868 1604.586 C 804.301 1587.598,819.413 1558.980,832.335 1545.000 C 843.187 1533.259,846.000 1525.648,846.000 1508.030 C 846.000 1488.490,840.354 1480.413,824.848 1477.769 C 815.394 1476.157,812.359 1477.472,797.848 1489.464 M450.600 1524.600 C 448.620 1526.580,447.000 1534.070,447.000 1541.244 C 447.000 1553.529,448.265 1555.495,468.750 1575.031 C 485.878 1591.367,495.919 1598.114,516.000 1606.785 C 530.025 1612.841,545.316 1620.992,549.980 1624.898 C 559.904 1633.209,564.811 1633.760,571.281 1627.290 C 578.446 1620.125,579.770 1610.521,576.232 1591.380 C 570.583 1560.825,563.789 1554.837,523.500 1544.911 C 508.650 1541.252,488.269 1534.375,478.209 1529.629 C 457.606 1519.909,455.648 1519.552,450.600 1524.600 M951.723 1549.702 C 927.353 1561.846,910.627 1584.893,896.604 1625.652 C 887.498 1652.119,890.260 1650.325,906.354 1619.323 C 923.571 1586.156,945.373 1563.375,966.700 1556.268 C 973.918 1553.863,979.923 1549.822,980.470 1547.001 C 981.921 1539.518,969.890 1540.648,951.723 1549.702 M714.385 1582.036 C 709.901 1587.439,714.691 1611.079,722.970 1624.403 C 729.706 1635.244,752.275 1657.725,754.345 1655.655 C 755.145 1654.855,751.097 1647.584,745.348 1639.499 C 739.599 1631.413,732.093 1615.281,728.668 1603.649 C 721.522 1579.379,719.335 1576.071,714.385 1582.036 M255.627 1629.744 C 250.157 1636.335,255.717 1639.271,281.710 1643.513 C 312.754 1648.581,334.839 1661.179,360.106 1688.235 C 381.204 1710.827,395.887 1735.979,403.647 1762.824 L 407.889 1777.500 407.021 1758.993 C 405.033 1716.629,363.949 1661.246,318.790 1640.054 C 291.464 1627.231,261.740 1622.379,255.627 1629.744 M963.370 1632.744 C 949.213 1636.412,923.553 1663.097,911.903 1686.268 C 906.584 1696.845,897.714 1710.529,892.192 1716.675 C 886.669 1722.822,877.072 1737.672,870.865 1749.675 C 860.037 1770.613,859.577 1772.719,859.539 1801.500 C 859.502 1829.779,860.170 1833.049,871.177 1858.500 C 877.599 1873.350,888.079 1895.968,894.466 1908.762 C 907.706 1935.282,908.995 1947.083,904.722 2002.623 C 902.462 2031.998,902.754 2036.326,907.301 2040.873 C 914.058 2047.629,921.387 2047.340,938.262 2039.653 C 949.763 2034.414,954.840 2033.729,967.347 2035.732 C 975.681 2037.066,991.351 2038.235,1002.168 2038.329 C 1019.109 2038.476,1023.198 2039.644,1031.649 2046.750 C 1043.321 2056.564,1054.486 2057.434,1059.061 2048.886 C 1062.575 2042.320,1060.424 2019.865,1055.048 2007.000 C 1053.325 2002.875,1051.702 1977.900,1051.443 1951.500 C 1051.059 1912.356,1049.781 1899.349,1044.521 1881.000 C 1040.973 1868.625,1035.964 1851.075,1033.389 1842.000 C 1030.266 1830.993,1028.160 1806.526,1027.061 1768.500 C 1025.435 1712.195,1025.294 1711.225,1015.520 1689.000 C 1010.078 1676.625,1004.146 1660.982,1002.338 1654.238 C 997.032 1634.443,984.177 1627.352,963.370 1632.744 M612.346 1692.750 C 610.967 1696.463,608.862 1704.843,607.667 1711.374 C 602.233 1741.070,580.680 1776.551,549.275 1807.500 C 539.229 1817.400,531.008 1826.547,531.005 1827.827 C 530.983 1838.044,582.736 1793.068,597.544 1770.000 C 608.141 1753.492,621.000 1713.935,621.000 1697.845 C 621.000 1684.867,616.300 1682.099,612.346 1692.750 M1114.863 1763.925 C 1144.601 1825.469,1154.015 1857.898,1150.872 1887.967 C 1148.296 1912.611,1133.543 1944.000,1124.535 1944.000 C 1123.141 1944.000,1121.996 1932.863,1121.990 1919.250 C 1121.979 1889.680,1116.285 1855.219,1102.039 1798.500 C 1076.142 1695.388,1078.576 1688.826,1114.863 1763.925 M418.714 1796.250 C 414.415 1805.210,412.762 1820.017,410.591 1869.000 C 406.466 1962.107,399.226 1998.020,381.319 2014.215 C 377.844 2017.358,375.000 2023.070,375.000 2026.908 C 375.000 2035.882,386.011 2038.924,403.778 2034.858 C 415.459 2032.185,417.882 2032.644,427.242 2039.304 C 447.894 2053.998,464.968 2038.664,464.989 2005.404 C 465.000 1987.120,463.253 1979.017,448.930 1930.945 C 438.071 1894.498,434.594 1870.445,434.338 1830.000 C 434.051 1784.574,429.270 1774.247,418.714 1796.250 M240.834 1824.002 C 245.031 1836.377,252.548 1864.052,257.538 1885.502 C 262.528 1906.951,270.205 1940.025,274.599 1959.000 C 278.992 1977.975,283.298 2001.600,284.168 2011.500 L 285.748 2029.500 267.366 2004.000 C 257.256 1989.975,242.663 1969.836,234.937 1959.247 C 209.759 1924.738,201.864 1891.031,211.319 1858.404 C 213.694 1850.207,218.645 1832.994,222.322 1820.153 C 225.998 1807.312,229.950 1797.862,231.104 1799.153 C 232.258 1800.444,236.636 1811.626,240.834 1824.002 M617.900 1824.988 C 608.922 1829.464,597.000 1846.741,597.000 1855.276 C 597.000 1864.904,605.421 1875.000,613.452 1875.000 C 617.563 1875.000,623.189 1871.663,626.784 1867.094 C 634.260 1857.588,640.486 1838.199,638.077 1831.921 C 635.091 1824.140,625.921 1820.989,617.900 1824.988 M666.941 1826.851 C 661.684 1830.056,655.866 1835.514,654.012 1838.978 C 648.587 1849.114,645.463 1875.345,647.845 1890.750 C 650.261 1906.374,649.925 1906.745,639.000 1900.500 C 634.875 1898.142,629.813 1896.165,627.750 1896.106 C 619.750 1895.880,624.755 1902.577,642.750 1916.179 C 668.623 1935.735,692.300 1960.002,693.499 1968.192 C 695.231 1980.022,702.000 1978.754,702.000 1966.599 C 702.000 1957.233,699.256 1952.886,682.520 1935.733 C 665.116 1917.895,662.711 1913.948,659.940 1898.667 C 657.143 1883.244,657.688 1868.653,661.813 1848.483 C 662.602 1844.624,668.255 1836.868,674.374 1831.248 C 686.695 1819.931,682.428 1817.408,666.941 1826.851 M703.969 1836.398 C 697.032 1840.430,690.000 1856.887,690.000 1869.089 C 690.000 1895.592,732.043 1946.559,758.225 1951.795 C 765.159 1953.182,768.904 1952.096,773.688 1947.313 C 793.352 1927.648,766.019 1866.734,726.199 1841.481 C 711.130 1831.925,711.513 1832.012,703.969 1836.398 M586.714 1915.714 C 584.121 1918.307,582.005 1922.695,582.011 1925.464 C 582.032 1934.842,593.781 1949.852,608.174 1958.890 C 625.353 1969.677,637.718 1970.764,640.583 1961.739 C 645.885 1945.034,633.327 1923.977,612.996 1915.483 C 599.302 1909.761,592.609 1909.820,586.714 1915.714 M360.047 2061.384 C 336.730 2067.305,330.000 2071.069,330.000 2078.188 C 330.000 2081.279,331.606 2081.960,335.250 2080.412 C 347.634 2075.152,380.093 2067.005,388.435 2067.063 C 393.421 2067.097,406.179 2068.943,416.787 2071.165 C 433.269 2074.617,435.245 2074.599,430.379 2071.041 C 425.038 2067.135,412.933 2063.111,391.200 2058.015 C 385.268 2056.625,373.983 2057.845,360.047 2061.384 M924.000 2070.693 C 917.396 2073.609,919.369 2074.315,940.500 2076.600 C 954.128 2078.073,979.085 2084.149,998.250 2090.659 C 1016.813 2096.965,1032.000 2101.041,1032.000 2099.716 C 1032.000 2095.473,994.041 2079.021,970.158 2072.912 C 944.307 2066.301,934.961 2065.852,924.000 2070.693 M873.411 2108.589 C 860.692 2121.308,863.706 2151.375,877.904 2153.410 C 888.813 2154.973,894.000 2146.428,894.000 2126.891 C 894.000 2112.482,892.927 2108.637,888.197 2106.106 C 880.504 2101.988,879.912 2102.088,873.411 2108.589 M960.000 2147.959 C 953.007 2152.345,953.958 2177.356,961.323 2182.742 C 968.839 2188.238,973.451 2188.120,979.286 2182.286 C 984.922 2176.650,985.574 2155.994,980.250 2151.735 C 973.959 2146.702,964.745 2144.984,960.000 2147.959 M1057.714 2158.714 C 1051.710 2164.718,1051.692 2174.798,1057.670 2183.332 C 1063.136 2191.136,1071.630 2191.941,1078.286 2185.286 C 1085.063 2178.509,1084.102 2169.829,1075.636 2161.364 C 1067.023 2152.750,1064.109 2152.319,1057.714 2158.714 " stroke="none" fill="black" fill-rule="evenodd"/></svg>